PathFileType	4	(X/Y/Z)	C:\Git\research_data\ESMAC_2023\simulations\TD07\pre\dynamic21_l\marker_experimental.trc
DataRate	CameraRate	NumFrames	NumMarkers	Units	OrigDataRate	OrigDataStartFrame	OrigNumFrames
200.000000	200.000000	4	54	mm	200.000000	48	385
Frame#	Time	C7			T10			CLAV			STRN			RBAK			LASI			RASI			SACR			RT2			RT3			RKNE			RS1			RS2			RS3			RANK			RHEE			RTOE			RM5D			LT1			LT2			LT3			LKNE			LS1			LS2			LS3			LANK			LHEE			LTOE			LM5D			RT1			*30			*31			*32			*33			*34			*35			*36			*37			*38			*39			*40			*41			*42			*43			*44			*45			*46			*47			*48			*49			*50			*51			*52			*53			
		X1	Y1	Z1	X2	Y2	Z2	X3	Y3	Z3	X4	Y4	Z4	X5	Y5	Z5	X6	Y6	Z6	X7	Y7	Z7	X8	Y8	Z8	X9	Y9	Z9	X10	Y10	Z10	X11	Y11	Z11	X12	Y12	Z12	X13	Y13	Z13	X14	Y14	Z14	X15	Y15	Z15	X16	Y16	Z16	X17	Y17	Z17	X18	Y18	Z18	X19	Y19	Z19	X20	Y20	Z20	X21	Y21	Z21	X22	Y22	Z22	X23	Y23	Z23	X24	Y24	Z24	X25	Y25	Z25	X26	Y26	Z26	X27	Y27	Z27	X28	Y28	Z28	X29	Y29	Z29	X30	Y30	Z30	X31	Y31	Z31	X32	Y32	Z32	X33	Y33	Z33	X34	Y34	Z34	X35	Y35	Z35	X36	Y36	Z36	X37	Y37	Z37	X38	Y38	Z38	X39	Y39	Z39	X40	Y40	Z40	X41	Y41	Z41	X42	Y42	Z42	X43	Y43	Z43	X44	Y44	Z44	X45	Y45	Z45	X46	Y46	Z46	X47	Y47	Z47	X48	Y48	Z48	X49	Y49	Z49	X50	Y50	Z50	X51	Y51	Z51	X52	Y52	Z52	X53	Y53	Z53	X54	Y54	Z54	

49	0.24	-155.0637054443361	1193.196411132812	220.0519256591797	-166.5904998779298	973.7427978515625	243.1896667480468	-27.53892707824718	1145.91650390625	189.6063690185547	30.5742473602294	1015.099914550781	193.3249969482422	-149.0601501464845	1076.550048828125	344.1723022460938	-38.33658218383796	783.2443237304688	107.2185211181641	-29.61332321167003	771.3067016601562	357.2900390625	-189.2621917724611	818.3203125	234.4135589599609	-210.9272918701173	491.9084167480469	365.9777526855468	-160.2939605712891	477.9056396484375	367.4019165039062	-201.5320739746095	377.1264038085938	355.9237365722656	-304.9744567871094	330.1947021484375	377.3561401367187	-370.4479980468751	312.7086791992188	381.9584655761718	-334.0689086914063	270.9892578125	374.5821838378906	-492.7779541015626	148.8328552246093	353.5927734374999	-554.3001708984376	163.7002563476562	315.8884277343749	-423.2771911621094	31.90318870544431	308.0957031249999	-478.5022583007813	61.29349517822263	358.6883850097655	36.86603546142573	629.36181640625	76.67982482910156	48.82400512695308	565.0554809570312	75.19741821289064	86.24961853027338	590.46240234375	100.2914199829102	124.5284652709961	434.4810485839844	99.27028656005862	133.4438323974609	301.047119140625	91.85437774658206	100.0370101928711	245.3102416992188	79.56959533691408	143.8973999023437	236.7217407226562	104.9890747070313	90.76065826416014	65.85221862792969	111.5636978149414	45.63686370849607	43.09343338012695	146.5299835205078	244.7519226074218	40.14447402954103	144.844223022461	167.8759613037109	26.77268028259278	93.9119567871094	-171.2854614257813	538.5601196289062	380.5014038085937	nan	nan	nan	nan	nan	nan	nan	nan	nan	nan	nan	nan	nan	nan	nan	nan	nan	nan	nan	nan	nan	nan	nan	nan	nan	nan	nan	nan	nan	nan	nan	nan	nan	nan	nan	nan	nan	nan	nan	nan	nan	nan	nan	nan	nan	nan	nan	nan	nan	nan	nan	nan	nan	nan	nan	nan	nan	nan	nan	nan	nan	nan	nan	nan	nan	nan	nan	nan	nan	nan	nan	nan	
50	0.245	-148.0020751953126	1193.221923828125	218.4000396728515	-159.3450775146486	973.8956298828125	242.3855590820312	-20.34265136718761	1145.976684570312	187.9951171875	37.84680557250967	1015.168395996094	191.8737487792969	-141.6854095458986	1076.99755859375	342.9379272460938	-31.35521507263191	783.73583984375	106.4751739501953	-22.10181617736827	771.0477294921875	356.3697814941406	-182.0344696044923	818.2737426757812	234.1480407714843	-201.3189392089845	490.167724609375	365.4354858398437	-150.5759429931641	476.5706176757812	367.1446838378906	-191.1754302978516	375.6278381347656	355.9783935546874	-295.3302917480469	330.0819396972656	377.5108032226562	-360.9990234375001	313.4224243164062	381.7437438964843	-325.4124145507813	271.433349609375	374.8444519042968	-486.1455383300782	152.3353729248047	353.8935241699218	-546.7752075195314	169.0776824951172	315.768585205078	-421.9114685058594	32.3148498535156	308.3516540527343	-475.0421142578126	63.8471755981445	358.842559814453	44.0292243957519	629.7088623046875	75.62765502929689	55.61837387084956	565.298583984375	74.08582305908205	93.1938858032226	590.4111938476562	99.17873382568361	130.5148162841796	433.8739624023438	98.19596099853518	137.3614807128906	300.149169921875	91.05179595947268	102.8765487670898	244.8516235351562	79.22201538085939	146.8655700683593	235.7274780273438	104.4124069213867	91.00218963623045	65.93535614013672	111.7291717529297	45.73029708862302	43.18598937988281	146.6883697509766	244.9329986572265	40.31702041625978	144.8652343750001	167.8383636474609	26.99561882019044	93.82625579833987	-161.7915344238282	536.8829956054688	380.0593872070312	nan	nan	nan	nan	nan	nan	nan	nan	nan	nan	nan	nan	nan	nan	nan	nan	nan	nan	nan	nan	nan	nan	nan	nan	nan	nan	nan	nan	nan	nan	nan	nan	nan	nan	nan	nan	nan	nan	nan	nan	nan	nan	nan	nan	nan	nan	nan	nan	nan	nan	nan	nan	nan	nan	nan	nan	nan	nan	nan	nan	nan	nan	nan	nan	nan	nan	nan	nan	nan	nan	nan	nan	
51	0.25	-140.9840698242189	1193.326049804688	216.767333984375	-152.1659088134767	974.12353515625	241.5643310546875	-13.18862819671641	1146.103393554688	186.4407806396484	45.06343078613271	1015.297668457031	190.4977416992188	-134.4163055419923	1077.49853515625	341.7073059082031	-24.40987014770515	784.2620849609375	105.7200622558594	-14.69574451446545	770.8807983398438	355.4828491210938	-174.873748779297	818.2843627929688	233.8522491455078	-191.5573730468751	488.4168395996094	364.9344787597656	-140.7025909423829	475.2790222167969	366.9196166992188	-180.6112060546876	374.1561279296875	356.0336914062499	-285.3990478515626	329.9671630859375	377.6484985351562	-351.1763305664063	314.0790710449219	381.4344787597656	-316.4409790039063	271.8751831054688	375.0986938476562	-479.1378479003907	155.8716888427734	354.1407775878905	-538.8490600585939	174.4254455566406	315.5915222167968	-420.1078491210938	32.91147994995114	308.6632690429687	-471.1699523925782	66.54683685302732	358.9806213378905	50.85168838500972	629.6900024414062	74.32278442382814	61.84050750732417	565.07275390625	72.92639160156251	99.79179382324213	589.8778076171875	97.62210845947267	136.1872558593749	433.1221008300781	97.08357238769534	141.0446319580078	299.1544189453125	90.21876525878909	105.5301818847656	244.2852020263672	78.86380767822267	149.6463012695312	234.6697387695312	103.8039093017578	91.20903015136717	65.97122192382812	111.8604049682617	45.80132675170896	43.2457275390625	146.8349761962891	245.0639953613281	40.50400924682619	144.8769531250001	167.802734375	27.1969223022461	93.74153137207034	-152.1178588867188	535.1845703125	379.6332092285156	nan	nan	nan	nan	nan	nan	nan	nan	nan	nan	nan	nan	nan	nan	nan	nan	nan	nan	nan	nan	nan	nan	nan	nan	nan	nan	nan	nan	nan	nan	nan	nan	nan	nan	nan	nan	nan	nan	nan	nan	nan	nan	nan	nan	nan	nan	nan	nan	nan	nan	nan	nan	nan	nan	nan	nan	nan	nan	nan	nan	nan	nan	nan	nan	nan	nan	nan	nan	nan	nan	nan	nan	
52	0.255	-134.0137023925782	1193.510375976562	215.1565856933593	-145.0563201904298	974.426513671875	240.72607421875	-6.081562042236432	1146.298461914062	184.9474334716797	52.21903991699209	1015.489624023438	189.2001800537109	-127.26082611084	1078.050415039062	340.4791259765625	-17.50524139404304	784.8212890625	104.9530487060547	-7.398447513580434	770.8055419921875	354.6293334960938	-167.7840270996095	818.3582763671875	233.523696899414	-181.6544647216798	486.6772766113281	364.4714965820312	-130.6870269775391	474.0497741699219	366.7146911621094	-169.852523803711	372.7287292480469	356.0856018066406	-275.1946716308594	329.8645629882812	377.7633666992187	-341.0005798339844	314.697021484375	381.0437316894531	-307.1663208007813	272.3258972167969	375.3363647460937	-471.7593688964844	159.4370880126953	354.331817626953	-530.5460205078126	179.719009399414	315.3637084960936	-417.7782897949219	33.72165679931638	309.0325622558593	-466.8408813476563	69.39696502685544	359.1067504882811	57.32514190673823	629.3272094726562	72.80190277099611	67.51544189453121	564.4185180664062	71.74427032470705	106.0507659912109	588.9096069335938	95.66175842285158	141.5646514892578	432.2524108886719	95.94214630126956	144.5214538574218	298.0862731933594	89.3698654174805	108.0337142944336	243.6382904052734	78.48916625976564	152.261978149414	233.5688323974609	103.1754531860352	91.38855743408202	65.96446990966797	111.9582290649414	45.85264587402341	43.28022003173828	146.9675750732422	245.1532745361328	40.68436431884767	144.8805084228516	167.7699432373047	27.36767196655275	93.65968322753909	-142.2779846191407	533.486572265625	379.2203674316406	nan	nan	nan	nan	nan	nan	nan	nan	nan	nan	nan	nan	nan	nan	nan	nan	nan	nan	nan	nan	nan	nan	nan	nan	nan	nan	nan	nan	nan	nan	nan	nan	nan	nan	nan	nan	nan	nan	nan	nan	nan	nan	nan	nan	nan	nan	nan	nan	nan	nan	nan	nan	nan	nan	nan	nan	nan	nan	nan	nan	nan	nan	nan	nan	nan	nan	nan	nan	nan	nan	nan	nan	
